<!-- Icono SVG para AudioScribe -->
<svg width="512" height="512" viewBox="0 0 512 512" xmlns="http://www.w3.org/2000/svg">
    <defs>
        <linearGradient id="bgGradient" x1="0%" y1="0%" x2="100%" y2="100%">
            <stop offset="0%" style="stop-color:#667eea;stop-opacity:1" />
            <stop offset="100%" style="stop-color:#764ba2;stop-opacity:1" />
        </linearGradient>
        <linearGradient id="iconGradient" x1="0%" y1="0%" x2="100%" y2="100%">
            <stop offset="0%" style="stop-color:#4f46e5;stop-opacity:1" />
            <stop offset="100%" style="stop-color:#06b6d4;stop-opacity:1" />
        </linearGradient>
    </defs>
    
    <!-- Fondo -->
    <circle cx="256" cy="256" r="240" fill="url(#bgGradient)" stroke="#ffffff" stroke-width="8"/>
    
    <!-- Icono de microfono -->
    <g transform="translate(256,256)">
        <!-- Micrófono -->
        <ellipse cx="0" cy="-60" rx="35" ry="55" fill="url(#iconGradient)"/>
        <rect x="-4" y="-5" width="8" height="60" fill="url(#iconGradient)"/>
        
        <!-- Base del micrófono -->
        <rect x="-30" y="55" width="60" height="8" rx="4" fill="url(#iconGradient)"/>
        
        <!-- Ondas de sonido -->
        <g stroke="url(#iconGradient)" stroke-width="6" fill="none">
            <path d="M -80,-60 Q -65,-60 -65,-40 Q -65,-20 -80,0"/>
            <path d="M 80,-60 Q 65,-60 65,-40 Q 65,-20 80,0"/>
            <path d="M -100,-80 Q -80,-80 -80,-40 Q -80,0 -100,20"/>
            <path d="M 100,-80 Q 80,-80 80,-40 Q 80,0 100,20"/>
        </g>
        
        <!-- Texto/documento -->
        <g transform="translate(60,40)">
            <rect x="-25" y="-35" width="50" height="60" rx="4" fill="white" stroke="url(#iconGradient)" stroke-width="3"/>
            <line x1="-15" y1="-20" x2="15" y2="-20" stroke="url(#iconGradient)" stroke-width="2"/>
            <line x1="-15" y1="-5" x2="15" y2="-5" stroke="url(#iconGradient)" stroke-width="2"/>
            <line x1="-15" y1="10" x2="10" y2="10" stroke="url(#iconGradient)" stroke-width="2"/>
        </g>
    </g>
</svg>
